<?xml version="1.0" encoding="utf-8"?>
<!-- Generator: Adobe Illustrator 26.0.2, SVG Export Plug-In . SVG Version: 6.00 Build 0)  -->
<svg version="1.1" id="Layer_1" xmlns="http://www.w3.org/2000/svg" xmlns:xlink="http://www.w3.org/1999/xlink" x="0px" y="0px"
	 viewBox="0 0 72 72" style="enable-background:new 0 0 72 72;" xml:space="preserve">
<style type="text/css">
	.st0{fill:#FFFFFF;}
	.st1{fill:#00C7FD;}
	.st2{fill:#0054AE;}
</style>
<g>
	<path class="st0" d="M0,0v72h72V0H0z"/>
	<rect x="11.4" y="24.72" class="st1" width="3.79" height="3.79"/>
	<path class="st2" d="M15.1,44.45V30.81H11.5v13.64H15.1z M38.91,44.59v-3.34c-0.53,0-0.97-0.03-1.3-0.08
		c-0.37-0.06-0.65-0.18-0.84-0.37c-0.19-0.19-0.32-0.46-0.37-0.82c-0.06-0.34-0.08-0.78-0.08-1.32v-4.77h2.6v-3.07h-2.6V25.5h-3.59
		v13.18c0,1.11,0.1,2.06,0.29,2.81c0.19,0.75,0.51,1.35,0.96,1.81c0.45,0.46,1.04,0.79,1.75,0.98c0.72,0.2,1.65,0.3,2.74,0.3H38.91z
		 M59.5,44.45v-20h-3.59v20H59.5z M29.25,32.15c-1-1.07-2.4-1.62-4.18-1.62c-0.86,0-1.65,0.18-2.36,0.52
		c-0.71,0.35-1.31,0.84-1.79,1.46l-0.2,0.25l0-0.23v-1.73h-3.54v13.64h3.57v-7.27l0,0.5c0-0.08,0-0.17,0-0.25
		c0.04-1.27,0.36-2.23,0.95-2.83c0.63-0.64,1.4-0.97,2.28-0.97c1.04,0,1.83,0.32,2.35,0.94c0.51,0.61,0.78,1.49,0.78,2.61l0,0v0.03
		c0,0,0,0,0,0.01h0l0,7.21h3.63v-7.74C30.76,34.76,30.25,33.23,29.25,32.15z M54.04,37.6c0-0.98-0.17-1.91-0.52-2.76
		c-0.34-0.85-0.83-1.61-1.45-2.25c-0.61-0.64-1.36-1.15-2.22-1.51c-0.86-0.36-1.82-0.55-2.85-0.55c-0.98,0-1.91,0.19-2.77,0.56
		c-0.86,0.37-1.62,0.88-2.25,1.52c-0.63,0.63-1.14,1.39-1.52,2.25c-0.37,0.86-0.56,1.79-0.56,2.77c0,0.98,0.18,1.91,0.53,2.77
		c0.35,0.86,0.85,1.62,1.47,2.25c0.62,0.63,1.39,1.14,2.28,1.51c0.89,0.37,1.87,0.56,2.92,0.56c3.04,0,4.94-1.38,6.07-2.68
		l-2.59-1.97c-0.55,0.65-1.84,1.52-3.45,1.52c-1.01,0-1.85-0.23-2.48-0.7c-0.63-0.46-1.07-1.1-1.3-1.89l-0.04-0.13h10.72V37.6z
		 M43.35,36.35c0-1,1.15-2.74,3.62-2.74c2.47,0,3.62,1.74,3.62,2.74L43.35,36.35z"/>
	<path class="st2" d="M63.6,42.73c-0.07-0.16-0.17-0.3-0.29-0.42c-0.12-0.12-0.26-0.22-0.42-0.29c-0.16-0.07-0.33-0.11-0.52-0.11
		c-0.18,0-0.36,0.04-0.52,0.11c-0.16,0.07-0.3,0.17-0.42,0.29c-0.12,0.12-0.22,0.26-0.29,0.42c-0.07,0.16-0.11,0.33-0.11,0.52
		c0,0.18,0.04,0.36,0.11,0.52c0.07,0.16,0.17,0.3,0.29,0.42c0.12,0.12,0.26,0.22,0.42,0.29c0.16,0.07,0.33,0.11,0.52,0.11
		c0.18,0,0.36-0.04,0.52-0.11c0.16-0.07,0.3-0.17,0.42-0.29c0.12-0.12,0.22-0.26,0.29-0.42c0.07-0.16,0.11-0.33,0.11-0.52
		C63.7,43.06,63.67,42.89,63.6,42.73z M63.38,43.67c-0.06,0.13-0.14,0.25-0.23,0.35c-0.1,0.1-0.22,0.18-0.35,0.23
		c-0.13,0.06-0.28,0.09-0.43,0.09c-0.15,0-0.29-0.03-0.43-0.09c-0.13-0.06-0.25-0.14-0.35-0.23c-0.1-0.1-0.18-0.22-0.23-0.35
		c-0.06-0.13-0.09-0.28-0.09-0.43s0.03-0.29,0.09-0.43c0.06-0.13,0.14-0.25,0.23-0.35c0.1-0.1,0.22-0.18,0.35-0.23
		c0.13-0.06,0.28-0.09,0.43-0.09c0.15,0,0.29,0.03,0.43,0.09c0.13,0.06,0.25,0.14,0.35,0.23s0.18,0.22,0.23,0.35
		c0.06,0.13,0.09,0.28,0.09,0.43S63.44,43.54,63.38,43.67z M62.62,43.36c0.1-0.01,0.19-0.05,0.26-0.12c0.07-0.07,0.1-0.17,0.1-0.3
		c0-0.15-0.04-0.26-0.13-0.34c-0.09-0.08-0.22-0.12-0.41-0.12h-0.59V44h0.28v-0.62h0.2L62.72,44h0.29L62.62,43.36z M62.47,43.14
		c-0.04,0-0.09,0.01-0.13,0.01h-0.2v-0.43h0.2c0.04,0,0.09,0,0.13,0c0.04,0,0.08,0.01,0.12,0.03c0.03,0.01,0.06,0.04,0.08,0.06
		c0.02,0.03,0.03,0.07,0.03,0.12c0,0.05-0.01,0.09-0.03,0.12c-0.02,0.03-0.05,0.05-0.08,0.06C62.55,43.12,62.51,43.13,62.47,43.14z"
		/>
</g>
</svg>
